<?xml version="1.0" standalone="no"?>
<!DOCTYPE svg PUBLIC "-//W3C//DTD SVG 20010904//EN"
 "http://www.w3.org/TR/2001/REC-SVG-20010904/DTD/svg10.dtd">
<svg version="1.0" xmlns="http://www.w3.org/2000/svg"
 width="1024.000000pt" height="1024.000000pt" viewBox="0 0 1024.000000 1024.000000"
 preserveAspectRatio="xMidYMid meet">
<metadata>
Created by potrace 1.14, written by Peter Selinger 2001-2017
</metadata>
<g transform="translate(0.000000,1024.000000) scale(0.100000,-0.100000)"
fill="#000000" stroke="none">
<path d="M9016 8809 c-516 -49 -1019 -294 -1443 -703 -170 -163 -215 -218
-583 -715 -57 -77 -107 -141 -111 -141 -8 0 -84 98 -139 179 -65 97 -163 310
-209 455 -23 71 -41 136 -41 145 -1 14 -2 14 -9 1 -5 -8 -15 -66 -21 -129 -33
-297 35 -582 195 -815 l46 -68 -133 -131 c-254 -251 -497 -411 -818 -540 -331
-133 -541 -175 -1245 -252 -1647 -178 -2586 -441 -3241 -907 -313 -223 -560
-473 -759 -773 -296 -444 -450 -925 -496 -1550 -12 -171 -6 -644 9 -685 10
-27 50 111 197 674 152 581 231 817 364 1091 166 339 358 574 651 795 356 267
592 409 895 538 577 245 1372 398 2682 517 307 27 451 49 642 96 539 133 1001
387 1391 765 64 63 120 114 123 114 4 0 32 -16 64 -37 31 -20 102 -58 157 -84
241 -115 482 -149 841 -119 602 50 992 202 1332 517 54 50 151 158 185 206 20
27 16 26 -78 -21 -221 -111 -512 -226 -744 -296 -447 -133 -859 -161 -1180
-80 -113 28 -255 82 -328 124 l-52 31 117 142 c336 407 621 708 823 868 332
262 705 436 1111 518 187 38 319 52 552 58 125 3 227 8 227 10 0 3 -13 18 -30
33 -16 15 -30 33 -30 39 0 6 -7 11 -15 11 -8 0 -15 4 -15 10 0 20 -229 75
-414 100 -117 15 -357 20 -470 9z"/>
<path d="M5035 5143 c-132 -31 -199 -110 -199 -233 0 -70 16 -113 63 -163 91
-99 261 -97 346 5 106 125 59 319 -90 376 -38 14 -94 22 -120 15z"/>
<path d="M2762 4215 c-6 -59 -100 -401 -156 -568 -313 -936 -857 -1584 -1690
-2013 -89 -45 -222 -108 -296 -139 -74 -31 -144 -60 -155 -66 -13 -6 43 -8
165 -5 282 7 465 53 745 191 257 125 462 273 699 505 427 417 598 749 662
1278 15 134 37 650 32 762 -2 41 -5 66 -6 55z"/>
</g>
</svg>
